<svg width="40" height="40" viewBox="0 0 40 40" fill="none" xmlns="http://www.w3.org/2000/svg">
<path fill-rule="evenodd" clip-rule="evenodd" d="M17.4803 6.31333C19.1211 4.67233 21.3465 3.75027 23.667 3.75H28.167C28.4985 3.75 28.8165 3.8817 29.0509 4.11612C29.2853 4.35054 29.417 4.66848 29.417 5V11C29.417 11.3315 29.2853 11.6495 29.0509 11.8839C28.8165 12.1183 28.4985 12.25 28.167 12.25H23.667C23.6342 12.25 23.6017 12.2565 23.5713 12.269C23.541 12.2816 23.5134 12.3 23.4902 12.3232C23.467 12.3464 23.4486 12.374 23.436 12.4043C23.4235 12.4347 23.417 12.4672 23.417 12.5V15.75H28.167C28.357 15.7499 28.5446 15.7931 28.7154 15.8764C28.8862 15.9596 29.0358 16.0808 29.1528 16.2305C29.2698 16.3803 29.3511 16.5547 29.3905 16.7406C29.4299 16.9265 29.4264 17.119 29.3803 17.3033L27.8803 23.3033C27.8127 23.5739 27.6565 23.814 27.4366 23.9855C27.2168 24.1571 26.9458 24.2502 26.667 24.25H23.417V35C23.417 35.3315 23.2853 35.6495 23.0509 35.8839C22.8165 36.1183 22.4985 36.25 22.167 36.25H16.167C15.8355 36.25 15.5175 36.1183 15.2831 35.8839C15.0487 35.6495 14.917 35.3315 14.917 35V24.25H11.667C11.3355 24.25 11.0175 24.1183 10.7831 23.8839C10.5487 23.6495 10.417 23.3315 10.417 23V17C10.417 16.8358 10.4493 16.6733 10.5121 16.5216C10.575 16.37 10.667 16.2322 10.7831 16.1161C10.8992 16 11.037 15.908 11.1886 15.8452C11.3403 15.7823 11.5028 15.75 11.667 15.75H14.917V12.5C14.9173 10.1795 15.8393 7.95407 17.4803 6.31333ZM23.667 6.25C22.0094 6.25 20.4197 6.90848 19.2476 8.08058C18.0755 9.25268 17.417 10.8424 17.417 12.5V17C17.417 17.3315 17.2853 17.6495 17.0509 17.8839C16.8165 18.1183 16.4985 18.25 16.167 18.25H12.917V21.75H16.167C16.4985 21.75 16.8165 21.8817 17.0509 22.1161C17.2853 22.3505 17.417 22.6685 17.417 23V33.75H20.917V23C20.917 22.6685 21.0487 22.3505 21.2831 22.1161C21.5175 21.8817 21.8355 21.75 22.167 21.75H25.6903L26.5653 18.25H22.167C21.8355 18.25 21.5175 18.1183 21.2831 17.8839C21.0487 17.6495 20.917 17.3315 20.917 17V12.5C20.917 11.7707 21.2067 11.0712 21.7224 10.5555C22.2382 10.0397 22.9376 9.75 23.667 9.75H26.917V6.25H23.667Z" fill="#318339"/>
</svg>
