<svg width="101" height="128" viewBox="0 0 101 128" fill="none" xmlns="http://www.w3.org/2000/svg">
<path d="M21.003 46.0896C20.228 46.6792 20.0823 47.785 20.6738 48.5565C21.2633 49.3313 22.3691 49.4785 23.1421 48.889C23.9169 48.2975 24.0627 47.192 23.4712 46.4172C22.8819 45.6456 21.7763 45.4964 21.003 46.0896Z" fill="#318339"/>
<path d="M29.6047 39.5135C28.83 40.1048 28.6842 41.2106 29.274 41.9836C29.8652 42.7551 30.971 42.9059 31.7458 42.3144C32.5171 41.7229 32.6629 40.6173 32.0731 39.8443C31.4821 39.071 30.378 38.9237 29.6047 39.5135Z" fill="#318339"/>
<path d="M29.8447 53.5411C29.2791 53.975 29.1693 54.7907 29.6046 55.3584C30.0384 55.9256 30.8544 56.0373 31.4219 55.6035C31.9928 55.1682 32.099 54.3502 31.6637 53.7813C31.2296 53.2156 30.4171 53.1058 29.8447 53.5411Z" fill="#318339"/>
<path d="M36.2196 50.303C35.7843 49.7338 34.9701 49.6241 34.4009 50.0596C33.8317 50.495 33.7237 51.3092 34.1575 51.8784C34.5911 52.446 35.4071 52.5538 35.9763 52.122C36.5452 51.6864 36.6517 50.8704 36.2196 50.303Z" fill="#318339"/>
<path d="M100.126 73.8945L100.026 73.7951C99.1415 72.9106 97.7993 72.6707 96.6627 73.1952L92.6376 74.366C91.7925 74.7551 90.8119 74.7293 89.9892 74.294L81.6097 69.2505C81.224 69.0466 80.7972 68.9282 80.3618 68.9078L69.1385 69.146C68.3998 69.1085 67.7005 68.7981 67.1775 68.2753L49.4401 50.538C48.7083 49.8059 48.4083 48.7465 48.6465 47.7383L55.284 19.7121C55.3371 19.4858 55.3644 19.2561 55.3644 19.0247V2.98636C55.3647 1.33698 54.0274 0 52.3785 0H48.8814C47.2322 0 45.895 1.33698 45.895 2.98636V18.1968C45.895 18.4541 45.8625 18.7093 45.7957 18.9579L44.4242 24.1626C44.3127 23.9962 44.234 23.8161 44.1105 23.655C41.0199 19.6145 35.2376 18.8414 31.1936 21.9321C29.5547 23.1837 28.4646 24.879 27.9384 26.7218C23.7178 26.3414 19.3465 27.4777 15.714 30.255C12.0798 33.0337 9.83766 36.9526 9.09516 41.1252C7.17884 41.1475 5.25705 41.7559 3.6181 43.009C-0.422157 46.0981 -1.19718 51.8801 1.89373 55.9224C4.98289 59.9664 10.7684 60.7379 14.8089 57.6487C14.8588 57.6113 14.9015 57.5683 14.9494 57.5288C17.2517 59.5035 19.979 60.8047 22.8437 61.3942C22.9189 61.497 22.9912 61.6018 23.0682 61.7012C23.4454 62.1948 23.8584 62.6406 24.287 63.066L19.0038 85.2243C18.942 85.5124 18.836 85.7917 18.6917 86.049L11.0788 99.6994C10.3281 101.045 10.7242 102.739 11.9926 103.613L14.2777 105.188C14.9497 105.651 15.7828 105.819 16.5817 105.651C17.3805 105.485 18.0766 104.998 18.5087 104.306L26.0255 92.1998C26.1199 92.0488 26.2003 91.8876 26.2674 91.7215L30.6506 80.6149C31.0295 79.6583 31.8713 78.964 32.881 78.7753C33.8922 78.5868 34.9277 78.9312 35.6238 79.6871L41.6149 86.3075C42.371 87.127 42.6057 88.2996 42.227 89.347L40.595 100.827C40.4475 101.232 40.3909 101.662 40.4271 102.091L41.8466 115.607C41.9136 116.413 41.6494 117.214 41.118 117.822L38.7797 120.493C38.1969 121.158 37.9399 122.048 38.077 122.922C38.2141 123.797 38.7321 124.565 39.4895 125.019L42.3196 126.717C43.494 127.422 44.9973 127.237 45.966 126.269L50.5464 121.688C51.1054 121.129 51.4208 120.368 51.4208 119.578V104.405C51.4208 104.011 51.4995 103.621 51.6502 103.256L56.097 88.5019C56.4794 87.5849 61.7061 82.9923 62.6796 82.7969L75.4063 80.1637C75.9824 80.0489 76.5789 80.1053 77.1222 80.3283L88.8938 85.3716C89.8916 85.7796 91.0297 85.6184 91.875 84.9516L99.8651 78.3499C100.534 77.8202 100.945 77.0315 100.995 76.1815C101.044 75.3293 100.729 74.4979 100.126 73.8945ZM5.45943 53.1983C3.87536 51.1223 4.2697 48.1602 6.34397 46.5744C7.10682 45.9899 7.99136 45.678 8.88285 45.6179C9.12099 48.6042 10.124 51.5645 11.9358 54.1859C9.87193 55.6413 7.00923 55.2246 5.45943 53.1983ZM33.921 25.4961C35.9935 23.9105 38.9575 24.3081 40.5433 26.3823C42.0929 28.4067 41.745 31.2816 39.7942 32.8914C37.7422 30.4539 35.152 28.7087 32.3305 27.694C32.6218 26.8519 33.1567 26.0806 33.921 25.4961ZM27.9023 61.4677C25.0344 59.721 23.9614 56.7245 23.5773 54.3639C20.9887 54.9264 18.1911 54.0093 16.4769 51.7652C14.1163 48.676 14.7043 44.2533 17.7935 41.8913C19.5233 40.5697 21.6679 40.1736 23.6374 40.6208C23.7233 38.6032 24.6659 36.6387 26.3955 35.3154C29.4864 32.9548 33.9074 33.5463 36.2697 36.6369C37.9841 38.8793 38.1348 41.8192 36.9143 44.1694C39.0914 45.162 41.7005 46.9842 42.633 50.2087L35.4917 55.6669L35.0424 56.0096L27.9023 61.4677ZM39.3261 61.1491C36.8609 63.0349 33.7668 63.5028 30.9947 62.7106L43.0184 53.5188C43.0564 56.4007 41.7929 59.2649 39.3261 61.1491Z" fill="#318339"/>
</svg>
