<svg width="20" height="20" viewBox="0 0 20 20" fill="none" xmlns="http://www.w3.org/2000/svg">
<path d="M12.3953 15.3469L9.89531 19.0969C9.84976 19.1652 9.7912 19.2239 9.72296 19.2696C9.65473 19.3153 9.57817 19.3471 9.49764 19.3632C9.33501 19.3957 9.16612 19.3623 9.02813 19.2703C8.89013 19.1783 8.79433 19.0353 8.76181 18.8726C8.72928 18.71 8.76269 18.5411 8.85469 18.4031L11.3547 14.6531C11.4467 14.5151 11.5897 14.4193 11.7524 14.3868C11.915 14.3543 12.0839 14.3877 12.2219 14.4797C12.3599 14.5717 12.4557 14.7147 12.4882 14.8774C12.5207 15.04 12.4873 15.2089 12.3953 15.3469ZM18.125 7.1875C18.1233 8.76172 17.4973 10.271 16.3841 11.3841C15.271 12.4973 13.7617 13.1233 12.1875 13.125H10.3344L8.02031 16.5969C7.97476 16.6652 7.9162 16.7239 7.84796 16.7696C7.77973 16.8153 7.70317 16.8471 7.62264 16.8632C7.54211 16.8793 7.4592 16.8794 7.37864 16.8635C7.29809 16.8475 7.22145 16.8159 7.15312 16.7703C7.0848 16.7248 7.02611 16.6662 6.98041 16.598C6.93472 16.5297 6.90291 16.4532 6.88681 16.3726C6.8707 16.2921 6.87061 16.2092 6.88655 16.1286C6.90249 16.0481 6.93414 15.9715 6.97969 15.9031L8.83203 13.125H5.9375C4.86006 13.125 3.82675 12.697 3.06488 11.9351C2.30301 11.1733 1.875 10.1399 1.875 9.0625C1.875 7.98506 2.30301 6.95175 3.06488 6.18988C3.82675 5.42801 4.86006 5 5.9375 5C6.17105 5.0002 6.40416 5.02006 6.63438 5.05938C7.13282 3.76466 8.06847 2.6851 9.27922 2.00773C10.49 1.33035 11.8995 1.09785 13.2637 1.3505C14.6278 1.60315 15.8606 2.32503 16.7485 3.39107C17.6363 4.45711 18.1233 5.80015 18.125 7.1875ZM16.875 7.1875C16.87 5.97036 16.3922 4.80278 15.5426 3.93127C14.6929 3.05976 13.5378 2.55252 12.3212 2.51663C11.1046 2.48074 9.92162 2.91901 9.02206 3.73892C8.1225 4.55883 7.57674 5.69621 7.5 6.91094C7.49528 6.99301 7.47444 7.07336 7.43867 7.14738C7.4029 7.2214 7.3529 7.28766 7.29153 7.34235C7.16758 7.45283 7.00482 7.50953 6.83906 7.5C6.6733 7.49047 6.51812 7.41548 6.40765 7.29153C6.29718 7.16758 6.24047 7.00482 6.25 6.83906C6.26094 6.64844 6.28099 6.46016 6.31016 6.27422C6.18657 6.25836 6.0621 6.25027 5.9375 6.25C5.19158 6.25 4.47621 6.54632 3.94876 7.07376C3.42132 7.60121 3.125 8.31658 3.125 9.0625C3.125 9.80842 3.42132 10.5238 3.94876 11.0512C4.47621 11.5787 5.19158 11.875 5.9375 11.875H12.1875C13.4303 11.8736 14.6217 11.3792 15.5005 10.5005C16.3792 9.6217 16.8736 8.43026 16.875 7.1875Z" fill="#318339"/>
</svg>
