<svg width="20" height="20" viewBox="0 0 20 20" fill="none" xmlns="http://www.w3.org/2000/svg">
<path d="M10 6.5C10.1326 6.5 10.2598 6.55268 10.3536 6.64645C10.4473 6.74021 10.5 6.86739 10.5 7V12.063C10.9713 12.1847 11.3821 12.4741 11.6553 12.877C11.9285 13.2799 12.0454 13.7686 11.9841 14.2515C11.9227 14.7344 11.6874 15.1784 11.3221 15.5002C10.9569 15.822 10.4868 15.9995 10 15.9995C9.51322 15.9995 9.04314 15.822 8.67789 15.5002C8.31263 15.1784 8.07728 14.7344 8.01594 14.2515C7.95461 13.7686 8.0715 13.2799 8.3447 12.877C8.61791 12.4741 9.02867 12.1847 9.5 12.063V7C9.5 6.86739 9.55268 6.74021 9.64645 6.64645C9.74022 6.55268 9.86739 6.5 10 6.5ZM10 2C9.20435 2 8.44129 2.31607 7.87868 2.87868C7.31607 3.44129 7 4.20435 7 5V11.354C6.49083 11.9313 6.15907 12.6433 6.04453 13.4046C5.92999 14.1658 6.03753 14.9439 6.35425 15.6455C6.67097 16.3471 7.18342 16.9424 7.8301 17.36C8.47677 17.7776 9.23021 17.9998 10 17.9998C10.7698 17.9998 11.5232 17.7776 12.1699 17.36C12.8166 16.9424 13.329 16.3471 13.6458 15.6455C13.9625 14.9439 14.07 14.1658 13.9555 13.4046C13.8409 12.6433 13.5092 11.9313 13 11.354V5C13 4.20435 12.6839 3.44129 12.1213 2.87868C11.5587 2.31607 10.7957 2 10 2ZM10 3C10.5304 3 11.0391 3.21071 11.4142 3.58579C11.7893 3.96086 12 4.46957 12 5V11.755L12.143 11.9C12.5564 12.322 12.836 12.8566 12.9468 13.4368C13.0576 14.0171 12.9946 14.6171 12.7657 15.1617C12.5368 15.7063 12.1523 16.1712 11.6603 16.4981C11.1683 16.825 10.5907 16.9994 10 16.9994C9.40928 16.9994 8.83171 16.825 8.3397 16.4981C7.8477 16.1712 7.46316 15.7063 7.2343 15.1617C7.00544 14.6171 6.94245 14.0171 7.05322 13.4368C7.164 12.8566 7.44361 12.322 7.857 11.9L8 11.755V5C8 4.46957 8.21072 3.96086 8.58579 3.58579C8.96086 3.21071 9.46957 3 10 3Z" fill="#318339"/>
</svg>
