<svg width="40" height="40" viewBox="0 0 40 40" fill="none" xmlns="http://www.w3.org/2000/svg">
<path d="M23.3333 20L17.5 23.3333V16.6666L23.3333 20Z" fill="#318339" stroke="#318339" stroke-width="2.5" stroke-linecap="round" stroke-linejoin="round"/>
<path d="M3.33301 21.1783V18.82C3.33301 13.995 3.33301 11.5816 4.84134 10.03C6.35134 8.47663 8.72801 8.40996 13.4797 8.27496C15.7297 8.21163 18.0297 8.16663 19.9997 8.16663C21.968 8.16663 24.268 8.21163 26.5197 8.27496C31.2713 8.40996 33.648 8.47663 35.1563 10.03C36.6663 11.5816 36.6663 13.9966 36.6663 18.82V21.1783C36.6663 26.005 36.6663 28.4166 35.158 29.97C33.648 31.5216 31.273 31.59 26.5197 31.7233C24.2697 31.7883 21.9697 31.8333 19.9997 31.8333C17.8259 31.8268 15.6524 31.7901 13.4797 31.7233C8.72801 31.59 6.35134 31.5233 4.84134 29.97C3.33301 28.4166 3.33301 26.0033 3.33301 21.18V21.1783Z" stroke="#318339" stroke-width="2.5"/>
</svg>
